<svg width="96" height="36" viewBox="0 0 96 36" fill="none" xmlns="http://www.w3.org/2000/svg">
<path fill-rule="evenodd" clip-rule="evenodd" d="M23.4964 31.1872C26.4852 31.1872 29.7278 32.2099 33.318 35.3841C33.6777 35.7019 34.1565 35.3069 33.842 34.9119C30.3148 30.4667 27.0523 29.6205 23.7987 28.9056C19.818 28.0295 17.7714 25.7943 16.3448 23.3405C16.0613 22.8529 15.9333 22.9389 15.9079 23.5667C15.8759 24.3335 15.93 25.3496 16.1021 26.3492C15.941 26.3558 15.7799 26.3547 15.6166 26.3547C9.9236 26.3547 5.30739 21.7474 5.30739 16.0643C5.30739 10.3823 9.9236 5.77598 15.6177 5.77598C21.3108 5.77598 25.927 10.3823 25.927 16.0643C25.927 16.4692 25.9071 16.8697 25.8608 17.2613C25.1083 17.1256 23.6266 17.1102 22.5873 17.1995C22.1967 17.2338 22.2519 17.4158 22.5476 17.4688C25.9557 18.0833 28.2958 20.1917 28.832 24.0168C28.843 24.1051 28.9599 24.1305 29.0052 24.0544C30.4543 21.6414 31.2176 18.8789 31.2129 16.0643C31.2129 7.46955 24.2301 0.5 15.6177 0.5C7.00427 0.5 0.0214844 7.46844 0.0214844 16.0643C0.0214844 24.6612 7.00427 31.6307 15.6177 31.6307C17.9016 31.6307 20.1699 31.1872 23.4964 31.1872ZM24.6571 25.5361C25.351 26.1208 25.5618 26.817 25.1955 27.308C24.9914 27.5772 24.6604 27.7261 24.2632 27.7261C23.8757 27.7262 23.5005 27.5903 23.2029 27.3422C22.5718 26.7916 22.3865 25.9002 22.798 25.3938C22.9591 25.1952 23.2206 25.0859 23.5339 25.0859C23.9145 25.0859 24.3139 25.2459 24.6571 25.5361ZM27.8588 24.0488C27.9603 24.7307 27.7452 25.0131 27.5279 25.0131C27.2906 25.0131 26.9939 24.7373 26.6441 24.1912C26.2977 23.6528 26.1708 23.0349 26.3429 22.7227C26.4554 22.5164 26.6927 22.4259 26.9917 22.5395C27.5709 22.7569 27.7971 23.6417 27.8588 24.0488ZM49.4769 20.4852L47.6785 18.326C47.6363 18.2751 47.6096 18.2132 47.6013 18.1476C47.593 18.082 47.6037 18.0155 47.6319 17.9557C47.6602 17.8959 47.7049 17.8454 47.7609 17.8102C47.8168 17.775 47.8816 17.7564 47.9477 17.7567H51.7089C51.8876 17.2249 51.9891 16.6567 51.9891 16.0654C51.9891 13.3623 49.9723 11.031 47.2052 11.031C44.4381 11.031 42.4213 13.3623 42.4213 16.0654C42.4213 18.7684 44.4381 21.0677 47.2052 21.0677C48.0437 21.0677 48.8116 20.8537 49.478 20.4841L49.4769 20.4852ZM57.6126 24.1316C57.8079 24.3478 57.6479 24.6943 57.3534 24.6943H53.2491C53.1666 24.6944 53.0851 24.6763 53.0104 24.6414C52.9356 24.6066 52.8695 24.5557 52.8166 24.4924L52.1215 23.6572C50.6577 24.6065 48.9499 25.1109 47.2052 25.1091C42.2084 25.1091 38.1438 21.0523 38.1438 16.0654C38.1438 11.0784 42.2084 7.02161 47.2052 7.02161C52.2021 7.02161 56.2666 11.0784 56.2666 16.0654C56.2666 17.8637 55.737 19.5385 54.8268 20.9486L57.6126 24.1316ZM95.532 7.43976H92.1812C92.0634 7.44005 91.9505 7.48699 91.8672 7.57031C91.7838 7.65363 91.7369 7.76655 91.7366 7.88439V24.2496C91.7366 24.4957 91.9352 24.6943 92.1812 24.6943H95.532C95.778 24.6943 95.9777 24.4957 95.9777 24.2496V7.88328C95.9777 7.76507 95.9307 7.65169 95.8471 7.5681C95.7635 7.48451 95.6502 7.43755 95.532 7.43755V7.43976ZM89.8941 7.43976H86.1473C86.0521 7.43939 85.9593 7.46951 85.8825 7.52569C85.8056 7.58187 85.7488 7.66118 85.7203 7.75199L82.7546 17.4235L79.4944 7.74096C79.4645 7.65263 79.4077 7.57591 79.3319 7.52166C79.256 7.46741 79.1651 7.43837 79.0718 7.43865H76.457C76.3636 7.43831 76.2725 7.46731 76.1965 7.52155C76.1204 7.57579 76.0634 7.65254 76.0333 7.74096L72.7742 17.4235L69.8085 7.75199C69.7802 7.66097 69.7235 7.58143 69.6466 7.52503C69.5698 7.46864 69.4769 7.43836 69.3815 7.43865H65.6336C65.5632 7.43877 65.4939 7.45553 65.4312 7.48755C65.3685 7.51956 65.3142 7.56594 65.2729 7.6229C65.2315 7.67933 65.2043 7.74485 65.1936 7.81397C65.1828 7.88309 65.1888 7.95378 65.2111 8.02009L70.7165 24.3942C70.7772 24.5751 70.9482 24.6965 71.1391 24.6965H74.1136C74.3056 24.6965 74.4755 24.5751 74.5362 24.3953L77.7644 14.8286L80.9916 24.3942C81.0522 24.5751 81.2233 24.6965 81.4141 24.6965H84.3897C84.5817 24.6965 84.7516 24.5751 84.8123 24.3942L90.3178 8.02009C90.34 7.95384 90.3461 7.88323 90.3355 7.81415C90.325 7.74507 90.2981 7.6795 90.2571 7.6229C90.2155 7.56586 90.1611 7.51943 90.0982 7.48741C90.0353 7.4554 89.9658 7.43869 89.8952 7.43865L89.8941 7.43976ZM63.7922 7.88439V24.2496C63.7922 24.4957 63.5936 24.6943 63.3465 24.6943H59.9969C59.8788 24.6943 59.7656 24.6475 59.6821 24.5641C59.5985 24.4808 59.5514 24.3677 59.5511 24.2496V7.88328C59.5511 7.63725 59.7497 7.43755 59.9969 7.43755H63.3465C63.5925 7.43755 63.7922 7.63725 63.7922 7.88439Z" fill="white"/>
</svg>
