<svg data-v-e683c57e="" viewBox="0 0 147 28" fill="none" xmlns="http://www.w3.org/2000/svg" class="row__icon-normal"><path d="M30.9307 2.34499C28.5671 1.2495 26.0398 0.45334 23.3976 0C23.0731 0.581166 22.694 1.36285 22.4326 1.98467C19.6239 1.56624 16.841 1.56624 14.0839 1.98467C13.8226 1.36285 13.4349 0.581166 13.1075 0C10.4625 0.45334 7.93226 1.25242 5.56866 2.35079C0.80124 9.48737 -0.491128 16.4467 0.155057 23.3072C3.31706 25.6463 6.38142 27.0673 9.39407 27.9971C10.1379 26.983 10.8013 25.905 11.3728 24.7688C10.2844 24.3591 9.24185 23.8535 8.25681 23.2665C8.51814 23.0747 8.77376 22.8742 9.02072 22.6679C15.0288 25.4517 21.5567 25.4517 27.493 22.6679C27.7429 22.8742 27.9985 23.0747 28.2569 23.2665C27.269 23.8564 26.2236 24.362 25.1352 24.7717C25.7067 25.905 26.3672 26.9859 27.1139 28C30.1295 27.0702 33.1967 25.6493 36.3587 23.3072C37.1169 15.3541 35.0634 8.45872 30.9307 2.34499ZM12.1913 19.088C10.3878 19.088 8.9087 17.4201 8.9087 15.389C8.9087 13.3578 10.3562 11.687 12.1913 11.687C14.0265 11.687 15.5055 13.3549 15.474 15.389C15.4768 17.4201 14.0265 19.088 12.1913 19.088ZM24.3224 19.088C22.5188 19.088 21.0398 17.4201 21.0398 15.389C21.0398 13.3578 22.4872 11.687 24.3224 11.687C26.1575 11.687 27.6366 13.3549 27.605 15.389C27.605 17.4201 26.1575 19.088 24.3224 19.088Z" fill="url(#paint0_linear_910_134)"></path><path d="M49.0667 7.14302H56.9069C58.7969 7.14302 60.3936 7.44231 61.7035 8.038C63.0098 8.63365 63.9894 9.46471 64.6386 10.5282C65.2873 11.5917 65.6146 12.8093 65.6146 14.1808C65.6146 15.5233 65.2757 16.7408 64.598 17.8304C63.9203 18.923 62.8892 19.786 61.5022 20.4224C60.1153 21.0587 58.3975 21.3783 56.3443 21.3783H49.0667V7.14302ZM56.2637 17.7607C57.536 17.7607 58.5156 17.4382 59.1988 16.796C59.8825 16.1509 60.2244 15.2734 60.2244 14.1605C60.2244 13.1289 59.9196 12.3065 59.3109 11.6905C58.7023 11.0745 57.7803 10.7636 56.548 10.7636H54.0954V17.7607H56.2637Z" fill="url(#paint1_linear_910_134)"></path><path d="M77.3526 21.361C76.2669 21.0762 75.2874 20.6636 74.4174 20.1202V16.7437C75.0751 17.258 75.9566 17.6823 77.0622 18.0165C78.1679 18.3477 79.2366 18.5133 80.2701 18.5133C80.7527 18.5133 81.1175 18.4494 81.3643 18.3215C81.6116 18.1937 81.7352 18.0397 81.7352 17.8624C81.7352 17.6591 81.6691 17.4905 81.534 17.3539C81.3988 17.2174 81.1376 17.104 80.7502 17.0081L78.3376 16.4589C76.9561 16.1335 75.9766 15.6831 75.394 15.1049C74.8109 14.5295 74.5206 13.774 74.5206 12.8384C74.5206 12.0509 74.7733 11.3681 75.2849 10.784C75.7929 10.1999 76.5167 9.74952 77.4557 9.43278C78.3952 9.11317 79.4918 8.95336 80.7527 8.95336C81.8784 8.95336 82.9095 9.07539 83.849 9.31948C84.788 9.56358 85.5633 9.87447 86.1809 10.2551V13.4486C85.5488 13.0679 84.825 12.7687 83.9981 12.542C83.1737 12.3182 82.3268 12.2078 81.4534 12.2078C80.1926 12.2078 79.5639 12.4257 79.5639 12.8587C79.5639 13.0621 79.6615 13.2132 79.8567 13.3149C80.0519 13.4166 80.4108 13.5212 80.9309 13.6316L82.941 13.9978C84.2539 14.2273 85.2329 14.6312 85.8761 15.2066C86.5198 15.7819 86.8411 16.6333 86.8411 17.7607C86.8411 18.9957 86.3101 19.9749 85.2444 20.7014C84.1788 21.4278 82.6682 21.791 80.7096 21.791C79.5579 21.7882 78.4382 21.6458 77.3526 21.361Z" fill="url(#paint2_linear_910_134)"></path><path d="M91.5862 20.9337C90.4349 20.3642 89.5645 19.5913 88.9844 18.6149C88.4043 17.6386 88.1115 16.5402 88.1115 15.3198C88.1115 14.0994 88.4128 13.0068 89.0159 12.045C89.6191 11.0832 90.5035 10.3277 91.6698 9.77848C92.8355 9.22929 94.2285 8.95614 95.8512 8.95614C97.8613 8.95614 99.5301 9.3833 100.857 10.2376V13.9599C100.389 13.6344 99.8429 13.37 99.2198 13.1666C98.5966 12.9632 97.9304 12.8615 97.2181 12.8615C95.9718 12.8615 94.9983 13.091 94.2945 13.5531C93.5908 14.0151 93.2379 14.6166 93.2379 15.3633C93.2379 16.0956 93.5793 16.6942 94.263 17.165C94.9467 17.6328 95.9373 17.8681 97.2382 17.8681C97.9074 17.8681 98.5681 17.7693 99.2198 17.5747C99.8689 17.3771 100.429 17.1359 100.897 16.8511V20.4513C99.424 21.3463 97.7152 21.7938 95.7706 21.7938C94.1339 21.788 92.7379 21.5032 91.5862 20.9337Z" fill="url(#paint3_linear_910_134)"></path><path d="M105.871 20.9338C104.711 20.3643 103.827 19.5856 103.217 18.5947C102.609 17.6038 102.302 16.4996 102.302 15.2792C102.302 14.0588 102.606 12.9691 103.217 12.0131C103.829 11.0571 104.708 10.3074 105.863 9.76405C107.014 9.22066 108.39 8.95044 109.984 8.95044C111.578 8.95044 112.953 9.22066 114.105 9.76405C115.257 10.3074 116.136 11.0513 116.739 12.0015C117.342 12.9517 117.643 14.0414 117.643 15.2763C117.643 16.4967 117.342 17.6009 116.739 18.5918C116.136 19.5826 115.254 20.3614 114.094 20.9309C112.933 21.5005 111.563 21.7852 109.981 21.7852C108.398 21.7852 107.029 21.5033 105.871 20.9338ZM111.98 17.3249C112.468 16.8309 112.715 16.1771 112.715 15.3635C112.715 14.5499 112.471 13.9019 111.98 13.4224C111.492 12.9401 110.825 12.6989 109.981 12.6989C109.122 12.6989 108.45 12.9401 107.959 13.4224C107.471 13.9048 107.227 14.5499 107.227 15.3635C107.227 16.1771 107.471 16.8309 107.959 17.3249C108.448 17.8189 109.122 18.0688 109.981 18.0688C110.825 18.0658 111.492 17.8189 111.98 17.3249Z" fill="url(#paint4_linear_910_134)"></path><path d="M129.723 9.70589V14.0994C129.212 13.7594 128.551 13.5909 127.732 13.5909C126.661 13.5909 125.834 13.9193 125.259 14.576C124.682 15.2327 124.395 16.2555 124.395 17.6386V21.3813H119.47V9.48217H124.295V13.2655C124.562 11.8823 124.996 10.8624 125.593 10.2028C126.187 9.54608 126.957 9.21774 127.893 9.21774C128.602 9.21774 129.212 9.38047 129.723 9.70589Z" fill="url(#paint5_linear_910_134)"></path><path d="M146.087 6.73624V21.3813H141.161V18.7168C140.745 19.7192 140.113 20.4835 139.263 21.0065C138.413 21.5267 137.362 21.7882 136.115 21.7882C135.001 21.7882 134.031 21.515 133.2 20.9658C132.37 20.4166 131.73 19.6641 131.279 18.708C130.831 17.752 130.604 16.6711 130.604 15.4623C130.59 14.2157 130.828 13.097 131.319 12.1061C131.808 11.1152 132.5 10.3423 133.39 9.7873C134.28 9.23232 135.297 8.95336 136.437 8.95336C138.784 8.95336 140.357 9.98489 141.161 12.0451V6.73624H146.087ZM140.426 17.2435C140.929 16.7495 141.179 16.1074 141.179 15.3228C141.179 14.5644 140.935 13.9455 140.446 13.4718C139.958 12.9982 139.289 12.7599 138.447 12.7599C137.618 12.7599 136.954 13.0011 136.457 13.4834C135.96 13.9658 135.713 14.5905 135.713 15.3635C135.713 16.1364 135.96 16.767 136.457 17.2551C136.954 17.7433 137.609 17.9874 138.427 17.9874C139.257 17.9845 139.923 17.7375 140.426 17.2435Z" fill="url(#paint6_linear_910_134)"></path><path d="M69.765 10.749C71.1209 10.749 72.2206 9.74982 72.2206 8.51733C72.2206 7.28483 71.1209 6.28573 69.765 6.28573C68.4086 6.28573 67.3094 7.28483 67.3094 8.51733C67.3094 9.74982 68.4086 10.749 69.765 10.749Z" fill="url(#paint7_linear_910_134)"></path><path d="M67.3074 12.2862C68.812 12.9429 70.679 12.9719 72.2181 12.2862V21.4452H67.3074V12.2862Z" fill="url(#paint8_linear_910_134)"></path><defs><linearGradient id="paint0_linear_910_134" x1="73.0435" y1="0" x2="73.0435" y2="28" gradientUnits="userSpaceOnUse"><stop stop-color="white"></stop><stop offset="1" stop-color="#D3D3D3"></stop></linearGradient><linearGradient id="paint1_linear_910_134" x1="73.0435" y1="0" x2="73.0435" y2="28" gradientUnits="userSpaceOnUse"><stop stop-color="white"></stop><stop offset="1" stop-color="#D3D3D3"></stop></linearGradient><linearGradient id="paint2_linear_910_134" x1="73.0435" y1="0" x2="73.0435" y2="28" gradientUnits="userSpaceOnUse"><stop stop-color="white"></stop><stop offset="1" stop-color="#D3D3D3"></stop></linearGradient><linearGradient id="paint3_linear_910_134" x1="73.0435" y1="0" x2="73.0435" y2="28" gradientUnits="userSpaceOnUse"><stop stop-color="white"></stop><stop offset="1" stop-color="#D3D3D3"></stop></linearGradient><linearGradient id="paint4_linear_910_134" x1="73.0435" y1="0" x2="73.0435" y2="28" gradientUnits="userSpaceOnUse"><stop stop-color="white"></stop><stop offset="1" stop-color="#D3D3D3"></stop></linearGradient><linearGradient id="paint5_linear_910_134" x1="73.0435" y1="0" x2="73.0435" y2="28" gradientUnits="userSpaceOnUse"><stop stop-color="white"></stop><stop offset="1" stop-color="#D3D3D3"></stop></linearGradient><linearGradient id="paint6_linear_910_134" x1="73.0435" y1="0" x2="73.0435" y2="28" gradientUnits="userSpaceOnUse"><stop stop-color="white"></stop><stop offset="1" stop-color="#D3D3D3"></stop></linearGradient><linearGradient id="paint7_linear_910_134" x1="73.0435" y1="0" x2="73.0435" y2="28" gradientUnits="userSpaceOnUse"><stop stop-color="white"></stop><stop offset="1" stop-color="#D3D3D3"></stop></linearGradient><linearGradient id="paint8_linear_910_134" x1="73.0435" y1="0" x2="73.0435" y2="28" gradientUnits="userSpaceOnUse"><stop stop-color="white"></stop><stop offset="1" stop-color="#D3D3D3"></stop></linearGradient></defs></svg>