<svg width="40" height="30" viewBox="0 0 40 30" fill="none" xmlns="http://www.w3.org/2000/svg">
<path d="M33.14 2.51249C30.6076 1.33875 27.8998 0.485721 25.0689 0C24.7212 0.622678 24.315 1.4602 24.0349 2.12643C21.0256 1.67811 18.0439 1.67811 15.0899 2.12643C14.8099 1.4602 14.3945 0.622678 14.0437 0C11.2098 0.485721 8.49885 1.34188 5.96642 2.5187C0.858471 10.165 -0.526209 17.6215 0.166132 24.972C3.55399 27.4782 6.83724 29.0007 10.0651 29.9969C10.862 28.9104 11.5728 27.7554 12.1851 26.538C11.019 26.099 9.90198 25.5573 8.84658 24.9284C9.12658 24.7229 9.40046 24.5081 9.66506 24.287C16.1023 27.2697 23.0965 27.2697 29.4568 24.287C29.7245 24.5081 29.9984 24.7229 30.2752 24.9284C29.2168 25.5604 28.0967 26.1021 26.9306 26.5411C27.5429 27.7554 28.2506 28.9135 29.0506 30C32.2816 29.0038 35.5679 27.4814 38.9557 24.972C39.7681 16.4508 37.5679 9.06291 33.14 2.51249ZM13.0621 20.4514C11.1298 20.4514 9.54504 18.6644 9.54504 16.4882C9.54504 14.3119 11.0959 12.5218 13.0621 12.5218C15.0284 12.5218 16.613 14.3088 16.5793 16.4882C16.5823 18.6644 15.0284 20.4514 13.0621 20.4514ZM26.0597 20.4514C24.1273 20.4514 22.5426 18.6644 22.5426 16.4882C22.5426 14.3119 24.0934 12.5218 26.0597 12.5218C28.0259 12.5218 29.6106 14.3088 29.5768 16.4882C29.5768 18.6644 28.0259 20.4514 26.0597 20.4514Z" fill="url(#paint0_linear_156_35)"/>
<defs>
<linearGradient id="paint0_linear_156_35" x1="78.2609" y1="0" x2="78.2609" y2="30" gradientUnits="userSpaceOnUse">
<stop stop-color="white"/>
<stop offset="1" stop-color="#D3D3D3"/>
</linearGradient>
</defs>
</svg>
