<svg width="137" height="30" viewBox="0 0 137 30" fill="none" xmlns="http://www.w3.org/2000/svg">
<g clip-path="url(#clip0_156_25)">
<path fill-rule="evenodd" clip-rule="evenodd" d="M2.48856 12.9148C12.2059 8.68111 18.6857 5.89 21.9278 4.54148C31.1848 0.691162 33.1084 0.022321 34.3621 0.000235481C34.6378 -0.00462199 35.2544 0.063716 35.6538 0.38778C35.991 0.661414 36.0838 1.03105 36.1282 1.29049C36.1726 1.54992 36.2279 2.14092 36.1839 2.60271C35.6823 7.8735 33.5117 20.6643 32.4074 26.5677C31.9401 29.0656 31.0201 29.9032 30.1294 29.9851C28.1937 30.1633 26.7238 28.7059 24.8489 27.4769C21.9151 25.5538 20.2577 24.3566 17.41 22.48C14.119 20.3113 16.2524 19.1193 18.128 17.1712C18.6188 16.6614 27.1477 8.90377 27.3128 8.20002C27.3334 8.11201 27.3526 7.78393 27.1577 7.6107C26.9628 7.43746 26.6751 7.4967 26.4675 7.54381C26.1733 7.6106 21.4865 10.7084 12.4073 16.8371C11.077 17.7506 9.87204 18.1957 8.79244 18.1723C7.60227 18.1466 5.31285 17.4994 3.61091 16.9462C1.5234 16.2676 -0.135701 15.9088 0.0087698 14.7564C0.0840191 14.1562 0.910616 13.5423 2.48856 12.9148Z" fill="url(#paint0_linear_156_25)"/>
<path d="M55.5078 22.8571V10.0293H50.9878V7.75879H62.7065V10.0293H58.1969V22.8571H55.5078Z" fill="url(#paint1_linear_156_25)"/>
<path d="M66.5779 23.0769C63.2506 23.0769 61.2417 20.8691 61.2417 17.3431V17.3326C61.2417 13.8379 63.282 11.536 66.4523 11.536C69.6227 11.536 71.5897 13.7646 71.5897 17.1129V17.9499H63.8261C63.8679 19.8961 64.9352 21.047 66.6302 21.047C67.9276 21.047 68.7751 20.3564 69.0263 19.6136L69.0472 19.5403H71.4851L71.4537 19.6554C71.1084 21.3609 69.4762 23.0769 66.5779 23.0769ZM66.4837 13.5763C65.1026 13.5763 64.0667 14.5075 63.8575 16.213H69.0577C68.8693 14.4552 67.8648 13.5763 66.4837 13.5763Z" fill="url(#paint2_linear_156_25)"/>
<path d="M73.3477 22.8571V7.75879H75.9531V22.8571H73.3477Z" fill="url(#paint3_linear_156_25)"/>
<path d="M83.0471 23.0769C79.7198 23.0769 77.7109 20.8691 77.7109 17.3431V17.3326C77.7109 13.8379 79.7512 11.536 82.9215 11.536C86.0919 11.536 88.059 13.7646 88.059 17.1129V17.9499H80.2953C80.3372 19.8961 81.4044 21.047 83.0994 21.047C84.3969 21.047 85.2444 20.3564 85.4955 19.6136L85.5164 19.5403H87.9543L87.923 19.6554C87.5777 21.3609 85.9454 23.0769 83.0471 23.0769ZM82.9529 13.5763C81.5718 13.5763 80.5359 14.5075 80.3267 16.213H85.5269C85.3385 14.4552 84.3341 13.5763 82.9529 13.5763Z" fill="url(#paint4_linear_156_25)"/>
<path d="M94.7449 26.739C91.8048 26.739 89.9528 25.3997 89.6389 23.6628L89.618 23.5686H92.1814L92.2128 23.6523C92.4954 24.2906 93.3847 24.7719 94.7449 24.7719C96.44 24.7719 97.3712 23.8721 97.3712 22.4595V20.8587H97.3189C96.7015 22.041 95.446 22.7944 93.8556 22.7944C91.0724 22.7944 89.2832 20.6599 89.2832 17.207V17.1966C89.2832 13.6914 91.0933 11.536 93.8974 11.536C95.4669 11.536 96.6806 12.373 97.3084 13.6496H97.3712V11.7662H99.9765V22.5432C99.9765 25.0544 97.9571 26.739 94.7449 26.739ZM94.6717 20.7854C96.2935 20.7854 97.3816 19.4148 97.3816 17.2593V17.2489C97.3816 15.1039 96.283 13.7333 94.6717 13.7333C92.9976 13.7333 91.9408 15.083 91.9408 17.2384V17.2489C91.9408 19.4357 92.9976 20.7854 94.6717 20.7854Z" fill="url(#paint5_linear_156_25)"/>
<path d="M102.111 22.8571V11.7662H104.716V13.6809H104.769C105.114 12.3417 106.035 11.536 107.311 11.536C107.636 11.536 107.939 11.5883 108.138 11.6406V13.9948C107.918 13.9111 107.52 13.8484 107.081 13.8484C105.606 13.8484 104.716 14.7796 104.716 16.4223V22.8571H102.111Z" fill="url(#paint6_linear_156_25)"/>
<path d="M112.501 23.0455C110.283 23.0455 108.787 21.6748 108.787 19.6973V19.6763C108.787 17.7093 110.314 16.5269 113.003 16.3595L115.901 16.1816V15.4178C115.901 14.2983 115.169 13.6182 113.851 13.6182C112.616 13.6182 111.863 14.1936 111.695 15.0098L111.674 15.1039H109.257L109.268 14.9784C109.425 13.0113 111.13 11.536 113.945 11.536C116.718 11.536 118.507 13.0008 118.507 15.2295V22.8571H115.901V21.1516H115.839C115.2 22.3131 113.966 23.0455 112.501 23.0455ZM111.381 19.5926C111.381 20.5029 112.135 21.0575 113.275 21.0575C114.771 21.0575 115.901 20.0635 115.901 18.7451V17.9081L113.369 18.065C112.082 18.1487 111.381 18.7033 111.381 19.5822V19.5926Z" fill="url(#paint7_linear_156_25)"/>
<path d="M120.61 22.8571V11.7662H123.215V13.5449H123.268C123.738 12.3312 124.879 11.536 126.344 11.536C127.892 11.536 129.012 12.3521 129.42 13.7751H129.483C130.016 12.394 131.335 11.536 132.936 11.536C135.122 11.536 136.556 13.0218 136.556 15.24V22.8571H133.95V15.8887C133.95 14.518 133.239 13.7333 131.962 13.7333C130.707 13.7333 129.849 14.6645 129.849 16.0038V22.8571H127.317V15.7527C127.317 14.5075 126.563 13.7333 125.35 13.7333C124.094 13.7333 123.215 14.7168 123.215 16.0665V22.8571H120.61Z" fill="url(#paint8_linear_156_25)"/>
</g>
<defs>
<linearGradient id="paint0_linear_156_25" x1="68.2779" y1="4.45488e-10" x2="68.2779" y2="30" gradientUnits="userSpaceOnUse">
<stop stop-color="white"/>
<stop offset="1" stop-color="#D3D3D3"/>
</linearGradient>
<linearGradient id="paint1_linear_156_25" x1="68.2777" y1="-8.85794e-07" x2="68.2777" y2="30" gradientUnits="userSpaceOnUse">
<stop stop-color="white"/>
<stop offset="1" stop-color="#D3D3D3"/>
</linearGradient>
<linearGradient id="paint2_linear_156_25" x1="68.2777" y1="1.00137e-05" x2="68.2777" y2="30" gradientUnits="userSpaceOnUse">
<stop stop-color="white"/>
<stop offset="1" stop-color="#D3D3D3"/>
</linearGradient>
<linearGradient id="paint3_linear_156_25" x1="68.2779" y1="-8.85794e-07" x2="68.2779" y2="30" gradientUnits="userSpaceOnUse">
<stop stop-color="white"/>
<stop offset="1" stop-color="#D3D3D3"/>
</linearGradient>
<linearGradient id="paint4_linear_156_25" x1="68.2779" y1="1.00137e-05" x2="68.2779" y2="30" gradientUnits="userSpaceOnUse">
<stop stop-color="white"/>
<stop offset="1" stop-color="#D3D3D3"/>
</linearGradient>
<linearGradient id="paint5_linear_156_25" x1="68.2779" y1="1.05521e-05" x2="68.2779" y2="30" gradientUnits="userSpaceOnUse">
<stop stop-color="white"/>
<stop offset="1" stop-color="#D3D3D3"/>
</linearGradient>
<linearGradient id="paint6_linear_156_25" x1="68.2777" y1="1.11e-05" x2="68.2777" y2="30" gradientUnits="userSpaceOnUse">
<stop stop-color="white"/>
<stop offset="1" stop-color="#D3D3D3"/>
</linearGradient>
<linearGradient id="paint7_linear_156_25" x1="68.278" y1="1.09686e-05" x2="68.278" y2="30" gradientUnits="userSpaceOnUse">
<stop stop-color="white"/>
<stop offset="1" stop-color="#D3D3D3"/>
</linearGradient>
<linearGradient id="paint8_linear_156_25" x1="68.2778" y1="1.11e-05" x2="68.2778" y2="30" gradientUnits="userSpaceOnUse">
<stop stop-color="white"/>
<stop offset="1" stop-color="#D3D3D3"/>
</linearGradient>
<clipPath id="clip0_156_25">
<rect width="137" height="30" fill="white"/>
</clipPath>
</defs>
</svg>
