<svg width="30" height="30" viewBox="0 0 30 30" fill="none" xmlns="http://www.w3.org/2000/svg">
<path fill-rule="evenodd" clip-rule="evenodd" d="M2.10857 2.10871C1.27708e-07 4.21744 0 7.61137 0 14.3992V15.5992C0 22.387 1.27708e-07 25.7809 2.10857 27.8897C4.21712 29.9984 7.61085 29.9984 14.3983 29.9984H15.5981C22.3854 29.9984 25.7792 29.9984 27.8877 27.8897C29.9961 25.7809 29.9961 22.387 29.9961 15.5992V14.3992C29.9961 7.61137 29.9961 4.21744 27.8877 2.10871C25.7792 0 22.3854 0 15.5981 0H14.3983C7.61085 0 4.21712 0 2.10857 2.10871ZM5.06192 9.12457C5.2244 16.9241 9.1239 21.6114 15.9605 21.6114H16.348V17.1491C18.8602 17.3991 20.7598 19.2366 21.5223 21.6114H25.0719C24.097 18.0616 21.5348 16.0992 19.9349 15.3492C21.5348 14.4243 23.7844 12.1744 24.3219 9.12457H21.0972C20.3973 11.5994 18.3229 13.8493 16.348 14.0617V9.12457H13.1233V17.774C11.1236 17.2741 8.59898 14.8493 8.4865 9.12457H5.06192Z" fill="url(#paint0_linear_52_3)"/>
<defs>
<linearGradient id="paint0_linear_52_3" x1="85.8446" y1="0" x2="85.8446" y2="29.9984" gradientUnits="userSpaceOnUse">
<stop stop-color="white"/>
<stop offset="1" stop-color="#D3D3D3"/>
</linearGradient>
</defs>
</svg>
