<svg width="174" height="30" viewBox="0 0 174 30" fill="none" xmlns="http://www.w3.org/2000/svg">
<path d="M53.0338 18.6123C53.0338 20.8897 50.9131 22.5389 47.9292 22.5389H40.9399V8.4035H47.6934C50.5991 8.4035 52.641 9.9741 52.641 12.173C52.641 13.665 51.8557 14.6073 50.6776 15.1571C51.9343 15.6282 53.0338 16.8848 53.0338 18.6123ZM44.0028 10.995V14.0576H47.6151C48.7146 14.0576 49.4213 13.4294 49.4213 12.5656C49.4213 11.7018 48.636 10.995 47.6151 10.995H44.0028ZM47.9292 19.9474C49.1072 19.9474 49.9709 19.2406 49.9709 18.2197C49.9709 17.1989 49.1855 16.4921 47.9292 16.4921H44.0028V19.9474H47.9292Z" fill="url(#paint0_linear_156_5)"/>
<path d="M64.5764 22.4604L59.7077 16.8848H58.9224V22.4604H55.7812V8.4035H58.9224V13.822H59.7077L64.4196 8.4035H68.1103L62.2207 15.1571L68.6602 22.4604H64.5764Z" fill="url(#paint1_linear_156_5)"/>
<path d="M68.6592 15.4713C68.6592 11.2306 71.8001 8.16797 76.1976 8.16797C80.595 8.16797 83.7359 11.2306 83.7359 15.4713C83.7359 19.7119 80.595 22.7745 76.1976 22.7745C71.8001 22.7745 68.6592 19.7119 68.6592 15.4713ZM80.4378 15.4713C80.4378 12.8012 78.7103 10.995 76.1976 10.995C73.6847 10.995 71.9573 12.8012 71.9573 15.4713C71.9573 18.1413 73.6847 19.9475 76.1976 19.9475C78.7103 19.9475 80.4378 18.1413 80.4378 15.4713Z" fill="url(#paint2_linear_156_5)"/>
<path d="M95.7508 8.4035H98.892V22.4604H95.7508V16.8062H89.4685V22.4604H86.3271V8.4035H89.4685V13.9791H95.7508V8.4035Z" fill="url(#paint3_linear_156_5)"/>
<path d="M105.645 22.4604V11.2306H100.776V8.4035H113.577V11.2306H108.707V22.4604H105.645Z" fill="url(#paint4_linear_156_5)"/>
<path d="M127.082 14.6075V22.4604H124.804L124.177 20.2616C123.47 21.4395 121.978 22.7745 119.7 22.7745C116.873 22.7745 114.831 20.8898 114.831 18.2983C114.831 15.7068 116.873 13.9007 121.035 13.9007H124.098C123.941 12.0945 122.998 10.8381 121.271 10.8381C119.857 10.8381 118.915 11.6233 118.444 12.4871L115.616 12.0159C116.323 9.58152 118.758 8.16797 121.427 8.16797C124.883 8.16797 127.082 10.5239 127.082 14.6075ZM124.019 16.335H121.114C118.758 16.335 117.972 17.1204 117.972 18.1413C117.972 19.3192 118.915 20.1046 120.486 20.1046C122.528 20.1046 124.019 18.6125 124.019 16.335Z" fill="url(#paint5_linear_156_5)"/>
<path d="M139.175 22.4604L134.305 16.8848H133.52V22.4604H130.379V8.4035H133.52V13.822H134.305L139.017 8.4035H142.708L136.819 15.1571L143.258 22.4604H139.175Z" fill="url(#paint6_linear_156_5)"/>
<path d="M148.911 22.4604V11.2306H144.042V8.4035H156.843V11.2306H151.974V22.4604H148.911Z" fill="url(#paint7_linear_156_5)"/>
<path d="M172.547 16.335H161.24C161.554 18.5339 163.124 19.9475 165.48 19.9475C167.129 19.9475 168.385 19.2407 169.093 18.2198L171.997 18.691C170.977 21.361 168.228 22.7745 165.244 22.7745C161.004 22.7745 157.941 19.7119 157.941 15.4713C157.941 11.2306 161.004 8.16797 165.244 8.16797C169.485 8.16797 172.547 11.2306 172.547 15.3141C172.626 15.7068 172.547 16.021 172.547 16.335ZM161.476 13.9007H169.249C168.699 12.173 167.286 10.9165 165.323 10.9165C163.438 10.8381 161.946 12.0945 161.476 13.9007Z" fill="url(#paint8_linear_156_5)"/>
<path fill-rule="evenodd" clip-rule="evenodd" d="M3.00114 2.10954C0.892578 4.21826 0.892578 7.61219 0.892578 14.4V15.6C0.892578 22.3879 0.892578 25.7817 3.00114 27.8905C5.1097 29.9992 8.50343 29.9992 15.2909 29.9992H16.4907C23.278 29.9992 26.6718 29.9992 28.7803 27.8905C30.8887 25.7817 30.8887 22.3879 30.8887 15.6V14.4C30.8887 7.61219 30.8887 4.21826 28.7803 2.10954C26.6718 0.000823975 23.278 0.000823975 16.4907 0.000823975H15.2909C8.50343 0.000823975 5.1097 0.000823975 3.00114 2.10954ZM5.95449 9.1254C6.11698 16.9249 10.0165 21.6122 16.8531 21.6122H17.2406V17.1499C19.7528 17.3999 21.6524 19.2374 22.4149 21.6122H25.9645C24.9896 18.0624 22.4274 16.1 20.8275 15.35C22.4274 14.4251 24.677 12.1752 25.2145 9.1254H21.9898C21.2899 11.6002 19.2154 13.8501 17.2406 14.0626V9.1254H14.0159V17.7749C12.0162 17.275 9.49156 14.8501 9.37907 9.1254H5.95449Z" fill="url(#paint9_linear_156_5)"/>
<defs>
<linearGradient id="paint0_linear_156_5" x1="86.7404" y1="0.000809933" x2="86.7404" y2="29.9992" gradientUnits="userSpaceOnUse">
<stop stop-color="white"/>
<stop offset="1" stop-color="#D3D3D3"/>
</linearGradient>
<linearGradient id="paint1_linear_156_5" x1="86.7394" y1="0.000809668" x2="86.7394" y2="29.9992" gradientUnits="userSpaceOnUse">
<stop stop-color="white"/>
<stop offset="1" stop-color="#D3D3D3"/>
</linearGradient>
<linearGradient id="paint2_linear_156_5" x1="86.7372" y1="0.000826542" x2="86.7372" y2="29.9992" gradientUnits="userSpaceOnUse">
<stop stop-color="white"/>
<stop offset="1" stop-color="#D3D3D3"/>
</linearGradient>
<linearGradient id="paint3_linear_156_5" x1="86.7374" y1="0.000809668" x2="86.7374" y2="29.9992" gradientUnits="userSpaceOnUse">
<stop stop-color="white"/>
<stop offset="1" stop-color="#D3D3D3"/>
</linearGradient>
<linearGradient id="paint4_linear_156_5" x1="86.7365" y1="0.000809668" x2="86.7365" y2="29.9992" gradientUnits="userSpaceOnUse">
<stop stop-color="white"/>
<stop offset="1" stop-color="#D3D3D3"/>
</linearGradient>
<linearGradient id="paint5_linear_156_5" x1="86.7352" y1="0.000826542" x2="86.7352" y2="29.9992" gradientUnits="userSpaceOnUse">
<stop stop-color="white"/>
<stop offset="1" stop-color="#D3D3D3"/>
</linearGradient>
<linearGradient id="paint6_linear_156_5" x1="86.7343" y1="0.000809668" x2="86.7343" y2="29.9992" gradientUnits="userSpaceOnUse">
<stop stop-color="white"/>
<stop offset="1" stop-color="#D3D3D3"/>
</linearGradient>
<linearGradient id="paint7_linear_156_5" x1="86.733" y1="0.000809668" x2="86.733" y2="29.9992" gradientUnits="userSpaceOnUse">
<stop stop-color="white"/>
<stop offset="1" stop-color="#D3D3D3"/>
</linearGradient>
<linearGradient id="paint8_linear_156_5" x1="86.7375" y1="0.000826542" x2="86.7375" y2="29.9992" gradientUnits="userSpaceOnUse">
<stop stop-color="white"/>
<stop offset="1" stop-color="#D3D3D3"/>
</linearGradient>
<linearGradient id="paint9_linear_156_5" x1="86.7372" y1="0.000823975" x2="86.7372" y2="29.9992" gradientUnits="userSpaceOnUse">
<stop stop-color="white"/>
<stop offset="1" stop-color="#D3D3D3"/>
</linearGradient>
</defs>
</svg>
