<svg width="135" height="30" viewBox="0 0 135 30" fill="none" xmlns="http://www.w3.org/2000/svg">
<g clip-path="url(#clip0_156_16)">
<path d="M17.1427 21.4285V8.57135L28.2769 15L17.1427 21.4285ZM41.9612 4.68451C41.4685 2.84069 40.0164 1.38839 38.1724 0.895592C34.8301 8.9407e-07 21.4284 0 21.4284 0C21.4284 0 8.02674 8.9407e-07 4.68447 0.895592C2.84067 1.38839 1.38837 2.84069 0.89558 4.68451C0 8.02678 0 14.9999 0 14.9999C0 14.9999 0 21.9733 0.89558 25.3154C1.38837 27.1591 2.84067 28.6115 4.68447 29.1042C8.02674 30 21.4284 30 21.4284 30C21.4284 30 34.8301 30 38.1724 29.1042C40.0164 28.6115 41.4685 27.1591 41.9612 25.3154C42.8569 21.9733 42.8569 14.9999 42.8569 14.9999C42.8569 14.9999 42.8569 8.02678 41.9612 4.68451Z" fill="url(#paint0_linear_156_16)"/>
<path d="M66.957 24.3497C67.1915 23.7372 67.3094 22.736 67.3094 21.3467V15.4925C67.3094 14.1441 67.1915 13.1585 66.957 12.5352C66.722 11.9121 66.3081 11.6004 65.7158 11.6004C65.1437 11.6004 64.7398 11.9121 64.5051 12.5352C64.2702 13.1585 64.1527 14.1441 64.1527 15.4925V21.3467C64.1527 22.736 64.2649 23.7372 64.49 24.3497C64.7144 24.9629 65.1228 25.2691 65.7158 25.2691C66.3081 25.2691 66.722 24.9629 66.957 24.3497ZM62.2068 27.2921C61.3583 26.7206 60.7554 25.8315 60.3984 24.6256C60.0408 23.4205 59.8623 21.8164 59.8623 19.814V17.0864C59.8623 15.0636 60.0662 13.4391 60.4751 12.2133C60.8836 10.9875 61.5217 10.0938 62.3906 9.53175C63.2587 8.97007 64.3979 8.68893 65.808 8.68893C67.1972 8.68893 68.3105 8.97518 69.1484 9.54702C69.9859 10.1191 70.599 11.0132 70.9874 12.2286C71.3751 13.4445 71.5695 15.0636 71.5695 17.0864V19.814C71.5695 21.8164 71.3804 23.4257 71.0026 24.6411C70.6244 25.8569 70.0113 26.7459 69.1636 27.3074C68.3154 27.8691 67.1664 28.1503 65.7158 28.1503C64.224 28.1503 63.0542 27.864 62.2068 27.2921Z" fill="url(#paint1_linear_156_16)"/>
<path d="M127.838 11.9516C127.623 12.2173 127.48 12.6514 127.409 13.254C127.336 13.8568 127.302 14.771 127.302 15.9969V17.3455H130.396V15.9969C130.396 14.7917 130.355 13.8774 130.274 13.254C130.193 12.631 130.045 12.1919 129.83 11.9363C129.615 11.6808 129.283 11.553 128.834 11.553C128.384 11.553 128.052 11.6862 127.838 11.9516ZM127.302 19.8587V20.8089C127.302 22.0146 127.336 22.9186 127.409 23.5211C127.48 24.124 127.628 24.5634 127.853 24.8394C128.078 25.1147 128.425 25.253 128.895 25.253C129.528 25.253 129.962 25.0077 130.198 24.5172C130.433 24.0269 130.56 23.2097 130.58 22.0652L134.228 22.2799C134.248 22.4439 134.259 22.6685 134.259 22.954C134.259 24.6911 133.784 25.9886 132.834 26.8467C131.883 27.7045 130.54 28.1338 128.803 28.1338C126.719 28.1338 125.258 27.4802 124.421 26.1721C123.582 24.8651 123.164 22.8421 123.164 20.104V16.8244C123.164 14.0049 123.598 11.9468 124.467 10.6488C125.335 9.35149 126.821 8.70273 128.926 8.70273C130.376 8.70273 131.49 8.96841 132.266 9.49951C133.043 10.0311 133.589 10.8586 133.906 11.982C134.222 13.1059 134.381 14.659 134.381 16.6406V19.8587H127.302Z" fill="url(#paint2_linear_156_16)"/>
<path d="M51.9081 19.5069L47.0962 2.12924H51.2949L52.9805 10.0059C53.4098 11.9474 53.7263 13.6023 53.9305 14.9709H54.0533C54.1961 13.9902 54.5129 12.3456 55.0033 10.0366L56.7503 2.12924H60.949L56.076 19.5069V27.8436H51.9081V19.5069Z" fill="url(#paint3_linear_156_16)"/>
<path d="M85.2256 9.05646V27.8436H81.9155L81.5475 25.5451H81.4558C80.5566 27.2818 79.208 28.1499 77.4102 28.1499C76.1638 28.1499 75.2445 27.7418 74.6518 26.9241C74.0592 26.1074 73.7632 24.8299 73.7632 23.0933V9.05646H77.9926V22.8479C77.9926 23.6862 78.0847 24.2835 78.2685 24.6409C78.4523 24.9988 78.7588 25.1772 79.1878 25.1772C79.5558 25.1772 79.9081 25.0652 80.2451 24.8399C80.5824 24.6152 80.8325 24.3298 80.9962 23.9822V9.05646H85.2256Z" fill="url(#paint4_linear_156_16)"/>
<path d="M106.92 9.05646V27.8436H103.61L103.242 25.5451H103.15C102.251 27.2818 100.902 28.1499 99.1046 28.1499C97.8582 28.1499 96.9389 27.7418 96.3462 26.9241C95.7536 26.1074 95.4575 24.8299 95.4575 23.0933V9.05646H99.687V22.8479C99.687 23.6862 99.7787 24.2835 99.9625 24.6409C100.147 24.9988 100.453 25.1772 100.882 25.1772C101.25 25.1772 101.602 25.0652 101.939 24.8399C102.277 24.6152 102.527 24.3298 102.691 23.9822V9.05646H106.92Z" fill="url(#paint5_linear_156_16)"/>
<path d="M96.7185 5.53189H92.5197V27.8437H88.3823V5.53189H84.1836V2.12982H96.7185V5.53189Z" fill="url(#paint6_linear_156_16)"/>
<path d="M117.041 19.723C117.041 21.092 116.984 22.1649 116.873 22.9409C116.76 23.7179 116.57 24.2694 116.306 24.5959C116.04 24.9229 115.681 25.0862 115.233 25.0862C114.885 25.0862 114.564 25.0049 114.267 24.841C113.97 24.6777 113.731 24.4327 113.547 24.1053V13.44C113.689 12.9296 113.935 12.5104 114.283 12.1835C114.63 11.8571 115.007 11.6932 115.417 11.6932C115.845 11.6932 116.177 11.8619 116.413 12.1988C116.648 12.5358 116.81 13.1029 116.903 13.9C116.995 14.6966 117.041 15.8306 117.041 17.3017V19.723ZM120.918 12.0596C120.662 10.8749 120.249 10.0168 119.677 9.4852C119.104 8.95437 118.318 8.68856 117.316 8.68856C116.54 8.68856 115.815 8.90834 115.141 9.34737C114.466 9.78682 113.945 10.3641 113.578 11.0791H113.547V1.17966H109.471V27.8433H112.964L113.394 26.066H113.486C113.813 26.6993 114.302 27.1999 114.957 27.5677C115.61 27.9354 116.336 28.1193 117.133 28.1193C118.562 28.1193 119.615 27.4602 120.289 26.1425C120.963 24.8245 121.301 22.7664 121.301 19.9669V16.994C121.301 14.8899 121.173 13.245 120.918 12.0596Z" fill="url(#paint7_linear_156_16)"/>
</g>
<defs>
<linearGradient id="paint0_linear_156_16" x1="67.1906" y1="0" x2="67.1906" y2="30" gradientUnits="userSpaceOnUse">
<stop stop-color="white"/>
<stop offset="1" stop-color="#D3D3D3"/>
</linearGradient>
<linearGradient id="paint1_linear_156_16" x1="67.1903" y1="3.43589e-06" x2="67.1903" y2="30" gradientUnits="userSpaceOnUse">
<stop stop-color="white"/>
<stop offset="1" stop-color="#D3D3D3"/>
</linearGradient>
<linearGradient id="paint2_linear_156_16" x1="67.1907" y1="7.88139e-06" x2="67.1907" y2="30" gradientUnits="userSpaceOnUse">
<stop stop-color="white"/>
<stop offset="1" stop-color="#D3D3D3"/>
</linearGradient>
<linearGradient id="paint3_linear_156_16" x1="67.1905" y1="2.79601e-06" x2="67.1905" y2="30" gradientUnits="userSpaceOnUse">
<stop stop-color="white"/>
<stop offset="1" stop-color="#D3D3D3"/>
</linearGradient>
<linearGradient id="paint4_linear_156_16" x1="67.1905" y1="4.88903e-06" x2="67.1905" y2="30" gradientUnits="userSpaceOnUse">
<stop stop-color="white"/>
<stop offset="1" stop-color="#D3D3D3"/>
</linearGradient>
<linearGradient id="paint5_linear_156_16" x1="67.1905" y1="4.88903e-06" x2="67.1905" y2="30" gradientUnits="userSpaceOnUse">
<stop stop-color="white"/>
<stop offset="1" stop-color="#D3D3D3"/>
</linearGradient>
<linearGradient id="paint6_linear_156_16" x1="67.1906" y1="1.46525e-05" x2="67.1906" y2="30" gradientUnits="userSpaceOnUse">
<stop stop-color="white"/>
<stop offset="1" stop-color="#D3D3D3"/>
</linearGradient>
<linearGradient id="paint7_linear_156_16" x1="67.1907" y1="1.40816e-05" x2="67.1907" y2="30" gradientUnits="userSpaceOnUse">
<stop stop-color="white"/>
<stop offset="1" stop-color="#D3D3D3"/>
</linearGradient>
<clipPath id="clip0_156_16">
<rect width="135" height="30" fill="white"/>
</clipPath>
</defs>
</svg>
