<svg width="43" height="30" viewBox="0 0 43 30" fill="none" xmlns="http://www.w3.org/2000/svg">
<path d="M17.1427 21.4285V8.57135L28.2769 15L17.1427 21.4285ZM41.9612 4.68451C41.4685 2.84069 40.0164 1.38839 38.1724 0.895592C34.8301 8.9407e-07 21.4284 0 21.4284 0C21.4284 0 8.02674 8.9407e-07 4.68447 0.895592C2.84067 1.38839 1.38837 2.84069 0.89558 4.68451C0 8.02678 0 14.9999 0 14.9999C0 14.9999 0 21.9733 0.89558 25.3154C1.38837 27.1591 2.84067 28.6115 4.68447 29.1042C8.02674 30 21.4284 30 21.4284 30C21.4284 30 34.8301 30 38.1724 29.1042C40.0164 28.6115 41.4685 27.1591 41.9612 25.3154C42.8569 21.9733 42.8569 14.9999 42.8569 14.9999C42.8569 14.9999 42.8569 8.02678 41.9612 4.68451Z" fill="url(#paint0_linear_52_4)"/>
<defs>
<linearGradient id="paint0_linear_52_4" x1="67.1906" y1="0" x2="67.1906" y2="30" gradientUnits="userSpaceOnUse">
<stop stop-color="white"/>
<stop offset="1" stop-color="#D3D3D3"/>
</linearGradient>
</defs>
</svg>
