<svg width="500" height="500" viewBox="0 0 500 500" fill="none" xmlns="http://www.w3.org/2000/svg">
<circle cx="250" cy="250" r="250" fill="#D40066"/>
<path d="M182.158 315C179.224 315 176.758 314 174.758 312C172.758 310 171.758 307.533 171.758 304.6V169.2C171.758 166.133 172.758 163.667 174.758 161.8C176.758 159.8 179.224 158.8 182.158 158.8C186.158 158.8 189.224 160.667 191.358 164.4L253.958 289.8H247.558L308.558 164.4C310.691 160.667 313.758 158.8 317.758 158.8C320.691 158.8 323.158 159.8 325.158 161.8C327.158 163.667 328.158 166.133 328.158 169.2V304.6C328.158 307.533 327.091 310 324.958 312C322.958 314 320.558 315 317.758 315C314.824 315 312.358 314 310.358 312C308.358 310 307.358 307.533 307.358 304.6V198L311.358 197L258.958 303.8C256.691 307.267 253.691 309 249.958 309C245.558 309 242.358 306.933 240.358 302.8L188.558 199L192.558 198V304.6C192.558 307.533 191.558 310 189.558 312C187.558 314 185.091 315 182.158 315Z" fill="white"/>
</svg>
