<svg width="120" height="20" viewBox="0 0 120 20" fill="none" xmlns="http://www.w3.org/2000/svg">
<path d="M1.648 19C1.296 19 1 18.88 0.76 18.64C0.52 18.4 0.4 18.104 0.4 17.752V1.504C0.4 1.136 0.52 0.839999 0.76 0.615999C1 0.375999 1.296 0.256 1.648 0.256C2.128 0.256 2.496 0.48 2.752 0.927999L10.264 15.976H9.496L16.816 0.927999C17.072 0.48 17.44 0.256 17.92 0.256C18.272 0.256 18.568 0.375999 18.808 0.615999C19.048 0.839999 19.168 1.136 19.168 1.504V17.752C19.168 18.104 19.04 18.4 18.784 18.64C18.544 18.88 18.256 19 17.92 19C17.568 19 17.272 18.88 17.032 18.64C16.792 18.4 16.672 18.104 16.672 17.752V4.96L17.152 4.84L10.864 17.656C10.592 18.072 10.232 18.28 9.784 18.28C9.256 18.28 8.872 18.032 8.632 17.536L2.416 5.08L2.896 4.96V17.752C2.896 18.104 2.776 18.4 2.536 18.64C2.296 18.88 2 19 1.648 19ZM29.2101 19.096C28.0421 19.096 26.9941 18.808 26.0661 18.232C25.1381 17.64 24.4021 16.848 23.8581 15.856C23.3301 14.848 23.0661 13.712 23.0661 12.448C23.0661 11.184 23.3541 10.048 23.9301 9.04C24.5221 8.032 25.3141 7.24 26.3061 6.664C27.3141 6.072 28.4421 5.776 29.6901 5.776C30.9381 5.776 32.0581 6.072 33.0501 6.664C34.0421 7.24 34.8261 8.032 35.4021 9.04C35.9941 10.048 36.2901 11.184 36.2901 12.448H35.3541C35.3541 13.712 35.0821 14.848 34.5381 15.856C34.0101 16.848 33.2821 17.64 32.3541 18.232C31.4261 18.808 30.3781 19.096 29.2101 19.096ZM29.6901 16.936C30.5061 16.936 31.2341 16.744 31.8741 16.36C32.5141 15.96 33.0181 15.424 33.3861 14.752C33.7541 14.064 33.9381 13.296 33.9381 12.448C33.9381 11.584 33.7541 10.816 33.3861 10.144C33.0181 9.456 32.5141 8.92 31.8741 8.536C31.2341 8.136 30.5061 7.936 29.6901 7.936C28.8901 7.936 28.1621 8.136 27.5061 8.536C26.8661 8.92 26.3541 9.456 25.9701 10.144C25.6021 10.816 25.4181 11.584 25.4181 12.448C25.4181 13.296 25.6021 14.064 25.9701 14.752C26.3541 15.424 26.8661 15.96 27.5061 16.36C28.1621 16.744 28.8901 16.936 29.6901 16.936ZM35.0661 19.024C34.7141 19.024 34.4181 18.912 34.1781 18.688C33.9541 18.448 33.8421 18.152 33.8421 17.8V14.128L34.2981 11.584L36.2901 12.448V17.8C36.2901 18.152 36.1701 18.448 35.9301 18.688C35.7061 18.912 35.4181 19.024 35.0661 19.024ZM41.3974 19C41.0454 19 40.7494 18.888 40.5094 18.664C40.2854 18.424 40.1734 18.128 40.1734 17.776V7.096C40.1734 6.728 40.2854 6.432 40.5094 6.208C40.7494 5.984 41.0454 5.872 41.3974 5.872C41.7654 5.872 42.0614 5.984 42.2854 6.208C42.5094 6.432 42.6214 6.728 42.6214 7.096V17.776C42.6214 18.128 42.5094 18.424 42.2854 18.664C42.0614 18.888 41.7654 19 41.3974 19ZM41.3974 3.736C40.9654 3.736 40.5894 3.584 40.2694 3.28C39.9654 2.96 39.8134 2.584 39.8134 2.152C39.8134 1.72 39.9654 1.352 40.2694 1.048C40.5894 0.728 40.9654 0.568 41.3974 0.568C41.8294 0.568 42.1974 0.728 42.5014 1.048C42.8214 1.352 42.9814 1.72 42.9814 2.152C42.9814 2.584 42.8214 2.96 42.5014 3.28C42.1974 3.584 41.8294 3.736 41.3974 3.736ZM50.2956 19C49.5916 19 48.9676 18.808 48.4236 18.424C47.8796 18.04 47.4556 17.52 47.1516 16.864C46.8476 16.192 46.6956 15.424 46.6956 14.56V1.456C46.6956 1.104 46.8076 0.816 47.0316 0.592C47.2556 0.368 47.5436 0.256 47.8956 0.256C48.2476 0.256 48.5356 0.368 48.7596 0.592C48.9836 0.816 49.0956 1.104 49.0956 1.456V14.56C49.0956 15.152 49.2076 15.64 49.4316 16.024C49.6556 16.408 49.9436 16.6 50.2956 16.6H50.8956C51.2156 16.6 51.4716 16.712 51.6636 16.936C51.8716 17.16 51.9756 17.448 51.9756 17.8C51.9756 18.152 51.8236 18.44 51.5196 18.664C51.2156 18.888 50.8236 19 50.3436 19H50.2956ZM59.8124 19.096C58.4844 19.096 57.3004 18.816 56.2604 18.256C55.2364 17.68 54.4284 16.896 53.8364 15.904C53.2604 14.896 52.9724 13.744 52.9724 12.448C52.9724 11.136 53.2444 9.984 53.7884 8.992C54.3484 7.984 55.1164 7.2 56.0924 6.64C57.0684 6.064 58.1884 5.776 59.4524 5.776C60.7004 5.776 61.7724 6.056 62.6684 6.616C63.5644 7.16 64.2444 7.92 64.7084 8.896C65.1884 9.856 65.4284 10.968 65.4284 12.232C65.4284 12.536 65.3244 12.792 65.1164 13C64.9084 13.192 64.6444 13.288 64.3244 13.288H54.6524V11.368H64.2524L63.2684 12.04C63.2524 11.24 63.0924 10.528 62.7884 9.904C62.4844 9.264 62.0524 8.76 61.4924 8.392C60.9324 8.024 60.2524 7.84 59.4524 7.84C58.5404 7.84 57.7564 8.04 57.1004 8.44C56.4604 8.84 55.9724 9.392 55.6364 10.096C55.3004 10.784 55.1324 11.568 55.1324 12.448C55.1324 13.328 55.3324 14.112 55.7324 14.8C56.1324 15.488 56.6844 16.032 57.3884 16.432C58.0924 16.832 58.9004 17.032 59.8124 17.032C60.3084 17.032 60.8124 16.944 61.3244 16.768C61.8524 16.576 62.2764 16.36 62.5964 16.12C62.8364 15.944 63.0924 15.856 63.3644 15.856C63.6524 15.84 63.9004 15.92 64.1084 16.096C64.3804 16.336 64.5244 16.6 64.5404 16.888C64.5564 17.176 64.4284 17.424 64.1564 17.632C63.6124 18.064 62.9324 18.416 62.1164 18.688C61.3164 18.96 60.5484 19.096 59.8124 19.096Z" fill="white"/>
<path d="M74.0339 19.096C72.7859 19.096 71.6579 18.808 70.6499 18.232C69.6579 17.64 68.8659 16.84 68.2739 15.832C67.6979 14.824 67.4099 13.688 67.4099 12.424C67.4099 11.16 67.6739 10.032 68.2019 9.04C68.7459 8.032 69.4819 7.24 70.4099 6.664C71.3379 6.072 72.3859 5.776 73.5539 5.776C74.4979 5.776 75.3699 5.976 76.1699 6.376C76.9699 6.76 77.6419 7.288 78.1859 7.96V1.48C78.1859 1.112 78.2979 0.816 78.5219 0.592C78.7619 0.368 79.0579 0.256 79.4099 0.256C79.7779 0.256 80.0739 0.368 80.2979 0.592C80.5219 0.816 80.6339 1.112 80.6339 1.48V12.424C80.6339 13.688 80.3379 14.824 79.7459 15.832C79.1699 16.84 78.3859 17.64 77.3939 18.232C76.4019 18.808 75.2819 19.096 74.0339 19.096ZM74.0339 16.936C74.8499 16.936 75.5779 16.744 76.2179 16.36C76.8579 15.96 77.3619 15.416 77.7299 14.728C78.0979 14.04 78.2819 13.272 78.2819 12.424C78.2819 11.56 78.0979 10.792 77.7299 10.12C77.3619 9.448 76.8579 8.92 76.2179 8.536C75.5779 8.136 74.8499 7.936 74.0339 7.936C73.2339 7.936 72.5059 8.136 71.8499 8.536C71.2099 8.92 70.6979 9.448 70.3139 10.12C69.9459 10.792 69.7619 11.56 69.7619 12.424C69.7619 13.272 69.9459 14.04 70.3139 14.728C70.6979 15.416 71.2099 15.96 71.8499 16.36C72.5059 16.744 73.2339 16.936 74.0339 16.936ZM90.9089 19.096C89.6129 19.096 88.4689 18.816 87.4769 18.256C86.4849 17.68 85.7009 16.896 85.1249 15.904C84.5649 14.896 84.2849 13.744 84.2849 12.448C84.2849 11.136 84.5649 9.984 85.1249 8.992C85.7009 7.984 86.4849 7.2 87.4769 6.64C88.4689 6.064 89.6129 5.776 90.9089 5.776C92.1889 5.776 93.3249 6.064 94.3169 6.64C95.3089 7.2 96.0849 7.984 96.6449 8.992C97.2209 9.984 97.5089 11.136 97.5089 12.448C97.5089 13.744 97.2289 14.896 96.6689 15.904C96.1089 16.896 95.3329 17.68 94.3409 18.256C93.3489 18.816 92.2049 19.096 90.9089 19.096ZM90.9089 16.936C91.7409 16.936 92.4769 16.744 93.1169 16.36C93.7569 15.976 94.2529 15.448 94.6049 14.776C94.9729 14.104 95.1569 13.328 95.1569 12.448C95.1569 11.568 94.9729 10.792 94.6049 10.12C94.2529 9.432 93.7569 8.896 93.1169 8.512C92.4769 8.128 91.7409 7.936 90.9089 7.936C90.0769 7.936 89.3409 8.128 88.7009 8.512C88.0609 8.896 87.5569 9.432 87.1889 10.12C86.8209 10.792 86.6369 11.568 86.6369 12.448C86.6369 13.328 86.8209 14.104 87.1889 14.776C87.5569 15.448 88.0609 15.976 88.7009 16.36C89.3409 16.744 90.0769 16.936 90.9089 16.936ZM118.384 19.024C118.032 19.024 117.736 18.912 117.496 18.688C117.272 18.448 117.16 18.152 117.16 17.8V10.936C117.16 9.928 116.912 9.184 116.416 8.704C115.92 8.208 115.272 7.96 114.472 7.96C113.64 7.96 112.952 8.248 112.408 8.824C111.88 9.4 111.616 10.136 111.616 11.032H109.624C109.624 9.992 109.848 9.08 110.296 8.296C110.744 7.496 111.368 6.872 112.168 6.424C112.984 5.976 113.912 5.752 114.952 5.752C115.864 5.752 116.672 5.952 117.376 6.352C118.08 6.752 118.624 7.344 119.008 8.128C119.408 8.896 119.608 9.832 119.608 10.936V17.8C119.608 18.152 119.496 18.448 119.272 18.688C119.048 18.912 118.752 19.024 118.384 19.024ZM102.376 19.024C102.024 19.024 101.728 18.912 101.488 18.688C101.264 18.448 101.152 18.152 101.152 17.8V7.12C101.152 6.752 101.264 6.456 101.488 6.232C101.728 6.008 102.024 5.896 102.376 5.896C102.744 5.896 103.04 6.008 103.264 6.232C103.488 6.456 103.6 6.752 103.6 7.12V17.8C103.6 18.152 103.488 18.448 103.264 18.688C103.04 18.912 102.744 19.024 102.376 19.024ZM110.392 19.024C110.04 19.024 109.744 18.912 109.504 18.688C109.28 18.448 109.168 18.152 109.168 17.8V10.936C109.168 9.928 108.92 9.184 108.424 8.704C107.928 8.208 107.28 7.96 106.48 7.96C105.648 7.96 104.96 8.248 104.416 8.824C103.872 9.4 103.6 10.136 103.6 11.032H102.088C102.088 9.992 102.296 9.08 102.712 8.296C103.128 7.496 103.704 6.872 104.44 6.424C105.176 5.976 106.016 5.752 106.96 5.752C107.872 5.752 108.68 5.952 109.384 6.352C110.088 6.752 110.632 7.344 111.016 8.128C111.416 8.896 111.616 9.832 111.616 10.936V17.8C111.616 18.152 111.504 18.448 111.28 18.688C111.056 18.912 110.76 19.024 110.392 19.024Z" fill="#D40066"/>
</svg>
