<svg width="74" height="42" viewBox="0 0 74 42" fill="none" xmlns="http://www.w3.org/2000/svg">
<path d="M74.0017 27.9524H70.3351V20.7494H66.8046V27.9524H63.138V17.6834H74.0017V27.9524Z" fill="white"/>
<path fill-rule="evenodd" clip-rule="evenodd" d="M55.6078 28.3195C58.8901 28.3195 61.3275 26.307 61.3275 23.2561C61.3275 20.3032 59.5292 18.3858 56.5237 18.3858C55.1367 18.3858 53.9922 18.8741 53.1301 19.7165C53.3359 17.9753 54.8084 16.7041 56.4296 16.7041C56.8037 16.7041 59.6205 16.6981 59.6205 16.6981L61.2134 13.65C61.2134 13.65 57.677 13.7305 56.033 13.7305C52.2768 13.7959 49.7397 17.2102 49.7397 21.357C49.7397 26.188 52.2142 28.3195 55.6078 28.3195ZM55.6277 21.0857C56.8464 21.0857 57.6913 21.8865 57.6913 23.2557C57.6913 24.4881 56.9406 25.5035 55.6277 25.5063C54.3719 25.5063 53.527 24.5655 53.527 23.2768C53.527 21.9072 54.3719 21.0857 55.6277 21.0857Z" fill="white"/>
<path d="M46.7552 24.5147C46.7552 24.5147 45.8893 25.0138 44.5961 25.1083C43.1093 25.1524 41.7845 24.2133 41.7845 22.5449C41.7845 20.9174 42.9535 19.9846 44.5586 19.9846C45.5428 19.9846 46.8448 20.6668 46.8448 20.6668C46.8448 20.6668 47.7975 18.9185 48.291 18.0442C47.3873 17.3593 46.1837 16.9837 44.7837 16.9837C41.2504 16.9837 38.5138 19.2874 38.5138 22.5242C38.5138 25.8023 41.0859 28.0525 44.7837 27.9846C45.8172 27.9461 47.2431 27.5831 48.1122 27.0249L46.7552 24.5147Z" fill="white"/>
<path d="M-0.00195312 9.142L5.08425 18.2332V23.7787L0.00399688 32.8521L-0.00195312 9.142Z" fill="#5D579E"/>
<path d="M19.527 14.9251L24.2929 12.004L34.0467 11.9949L19.527 20.8897V14.9251Z" fill="#C22953"/>
<path d="M19.5 9.08845L19.527 21.1249L14.4289 17.9925V0L19.5 9.08845Z" fill="#ECB941"/>
<path d="M34.0467 11.9949L24.2929 12.004L19.5 9.08845L14.4289 0L34.0467 11.9949Z" fill="#D87539"/>
<path d="M19.527 32.9025V27.0627L14.4289 23.9897L14.4317 42L19.527 32.9025Z" fill="#78B043"/>
<path d="M24.281 30.0079L5.08425 18.2332L-0.00195312 9.142L34.0261 29.996L24.281 30.0079Z" fill="#4A85C4"/>
<path d="M14.4317 42L19.527 32.9025L24.281 30.0079L34.0261 29.996L14.4317 42Z" fill="#3B7D3D"/>
<path d="M0.00399688 32.8521L14.4705 23.99L9.60695 21.0059L5.08425 23.7787L0.00399688 32.8521Z" fill="#8C4D92"/>
</svg>
