<svg width="48" height="48" viewBox="0 0 48 48" fill="none" xmlns="http://www.w3.org/2000/svg">
<rect width="48" height="48" rx="15" fill="#E0015B"/>
<path d="M13.1453 35C12.6759 35 12.2813 34.84 11.9613 34.52C11.6413 34.2 11.4813 33.8053 11.4813 33.336V11.672C11.4813 11.1813 11.6413 10.7867 11.9613 10.488C12.2813 10.168 12.6759 10.008 13.1453 10.008C13.7853 10.008 14.2759 10.3067 14.6173 10.904L24.6333 30.968H23.6093L33.3693 10.904C33.7106 10.3067 34.2013 10.008 34.8413 10.008C35.3106 10.008 35.7053 10.168 36.0253 10.488C36.3453 10.7867 36.5053 11.1813 36.5053 11.672V33.336C36.5053 33.8053 36.3346 34.2 35.9933 34.52C35.6733 34.84 35.2893 35 34.8413 35C34.3719 35 33.9773 34.84 33.6573 34.52C33.3373 34.2 33.1773 33.8053 33.1773 33.336V16.28L33.8173 16.12L25.4333 33.208C25.0706 33.7627 24.5906 34.04 23.9933 34.04C23.2893 34.04 22.7773 33.7093 22.4573 33.048L14.1693 16.44L14.8093 16.28V33.336C14.8093 33.8053 14.6493 34.2 14.3293 34.52C14.0093 34.84 13.6146 35 13.1453 35Z" fill="white"/>
</svg>
