<svg width="61" height="37" viewBox="0 0 61 37" fill="none" xmlns="http://www.w3.org/2000/svg">
<g clip-path="url(#clip0_16_802)">
<path d="M56.0644 0.675049H4.91685C2.74392 0.675049 0.982422 2.43655 0.982422 4.60948V32.1505C0.982422 34.3234 2.74392 36.0849 4.91685 36.0849H56.0644C58.2373 36.0849 59.9988 34.3234 59.9988 32.1505V4.60948C59.9988 2.43655 58.2373 0.675049 56.0644 0.675049Z" fill="#181818"/>
<path opacity="0.2" d="M45.4552 24.4686V24.1485H45.5922V24.083H45.2722V24.1485H45.4092V24.4686H45.4552ZM46.0951 24.4686V24.0803H46.004L45.8899 24.3314L45.7758 24.0803H45.6846V24.4686H45.7502V24.1715L45.8643 24.4226H45.9299L46.044 24.1715V24.4686H46.0951Z" fill="white"/>
<path opacity="0.35" d="M24.589 28.2158C30.0214 28.2158 34.4251 23.812 34.4251 18.3798C34.4251 12.9475 30.0214 8.5437 24.589 8.5437C19.1567 8.5437 14.7529 12.9475 14.7529 18.3798C14.7529 23.812 19.1567 28.2158 24.589 28.2158Z" fill="url(#paint0_linear_16_802)"/>
<path opacity="0.25" d="M36.3922 28.2158C41.8246 28.2158 46.2283 23.812 46.2283 18.3798C46.2283 12.9475 41.8246 8.5437 36.3922 8.5437C30.96 8.5437 26.5562 12.9475 26.5562 18.3798C26.5562 23.812 30.96 28.2158 36.3922 28.2158Z" fill="url(#paint1_linear_16_802)"/>
</g>
<defs>
<linearGradient id="paint0_linear_16_802" x1="24.589" y1="8.5437" x2="24.589" y2="28.2158" gradientUnits="userSpaceOnUse">
<stop stop-color="white"/>
<stop offset="1" stop-color="white" stop-opacity="0.5"/>
</linearGradient>
<linearGradient id="paint1_linear_16_802" x1="36.3922" y1="8.5437" x2="36.3922" y2="28.2158" gradientUnits="userSpaceOnUse">
<stop stop-color="white"/>
<stop offset="1" stop-color="white" stop-opacity="0.5"/>
</linearGradient>
<clipPath id="clip0_16_802">
<rect width="60" height="36" fill="white" transform="translate(0.75 0.379883)"/>
</clipPath>
</defs>
</svg>
