<svg width="81" height="37" viewBox="0 0 81 37" fill="none" xmlns="http://www.w3.org/2000/svg">
<g clip-path="url(#clip0_16_794)">
<path d="M76.3995 0.379883H5.11035C2.90121 0.379883 1.11035 2.17074 1.11035 4.37988V32.3799C1.11035 34.589 2.90121 36.3799 5.11035 36.3799H76.3995C78.6086 36.3799 80.3995 34.589 80.3995 32.3799V4.37988C80.3995 2.17074 78.6086 0.379883 76.3995 0.379883Z" fill="#181818"/>
<g opacity="0.5">
<path d="M15.1104 11.3822H19.9221C20.3595 11.3822 21.6718 11.2364 22.255 13.2777C22.6925 14.59 23.2757 16.6313 24.1505 19.6933H24.4422C25.317 16.4855 26.0461 14.2984 26.3377 13.2777C26.9209 11.2364 28.379 11.3822 28.9623 11.3822H33.4823V25.3799H28.8165V17.0688H28.5248L26.0461 25.3799H22.5466L20.0679 17.0688H19.6304V25.3799H15.1104M35.3778 11.3822H40.0438V19.6933H40.4812L43.5432 12.8403C44.1265 11.528 45.4387 11.3822 45.4387 11.3822H49.813V25.3799H45.147V17.0688H44.8554L41.7934 23.9218C41.2102 25.2341 39.7522 25.3799 39.7522 25.3799H35.3778M56.0828 21.1514V25.3799H51.7085V18.0894H65.9979C65.4147 19.8391 63.3733 21.1514 61.0404 21.1514" fill="url(#paint0_linear_16_794)"/>
<path d="M66.2895 17.2145C66.8728 14.5899 65.123 11.3821 61.332 11.3821H51.4169C51.7086 14.4441 54.3331 17.2145 57.1035 17.2145" fill="url(#paint1_linear_16_794)"/>
</g>
</g>
<defs>
<linearGradient id="paint0_linear_16_794" x1="40.7549" y1="11.3799" x2="40.7549" y2="25.3799" gradientUnits="userSpaceOnUse">
<stop stop-color="white"/>
<stop offset="1" stop-color="white" stop-opacity="0.5"/>
</linearGradient>
<linearGradient id="paint1_linear_16_794" x1="40.7549" y1="11.3798" x2="40.7549" y2="25.3798" gradientUnits="userSpaceOnUse">
<stop stop-color="white"/>
<stop offset="1" stop-color="white" stop-opacity="0.5"/>
</linearGradient>
<clipPath id="clip0_16_794">
<rect width="80" height="36" fill="white" transform="translate(0.75 0.379883)"/>
</clipPath>
</defs>
</svg>
