<svg width="76" height="37" viewBox="0 0 76 37" fill="none" xmlns="http://www.w3.org/2000/svg">
<g clip-path="url(#clip0_16_799)">
<path d="M71.0489 0.616699H5.33824C3.15817 0.616699 1.39087 2.384 1.39087 4.56407V32.1956C1.39087 34.3757 3.15817 36.143 5.33824 36.143H71.0489C73.229 36.143 74.9963 34.3757 74.9963 32.1956V4.56407C74.9963 2.384 73.229 0.616699 71.0489 0.616699Z" fill="#181818"/>
<path opacity="0.5" d="M32.6871 11.2022L26.6581 25.5631H22.7199L19.7446 14.1083C19.7119 13.8401 19.6132 13.5842 19.4575 13.3634C19.3017 13.1427 19.0936 12.9639 18.852 12.8432C17.6929 12.2919 16.4678 11.8919 15.2067 11.653L15.2817 11.2068H21.6047C22.024 11.1969 22.4319 11.3439 22.7485 11.6191C23.0651 11.8943 23.2675 12.2778 23.316 12.6944L24.8763 21.0206L28.7443 11.276H32.6871V11.2022ZM48.0847 20.8719C48.0847 17.0779 42.878 16.8553 42.878 15.2189C42.878 14.6976 43.3992 14.1776 44.4406 14.0287C45.695 13.892 46.9621 14.1249 48.0859 14.6987L48.7558 11.6485C47.6376 11.2258 46.4547 10.9992 45.2594 10.9785C41.6141 10.9785 39.0135 12.9091 39.0135 15.7389C39.0135 17.8217 40.8736 18.938 42.2863 19.6069C43.699 20.2758 44.2169 20.7232 44.2169 21.392C44.2169 22.3596 43.1005 22.8058 41.9854 22.8058C40.6677 22.8144 39.3669 22.5084 38.1913 21.9132L37.5213 25.0373C38.8274 25.5319 40.2129 25.7839 41.6095 25.7811C45.4774 25.7811 48.0063 23.8506 48.0824 20.8719M57.7544 25.5631H61.1805L58.2052 11.2068H55.0028C54.6671 11.2 54.3375 11.2961 54.0581 11.4823C53.7788 11.6684 53.5631 11.9358 53.4402 12.2481L47.8622 25.5631H51.73L52.4739 23.4054H57.2343L57.7544 25.5631ZM53.589 20.5051L55.5196 15.1496L56.6358 20.5051H53.589ZM37.9688 11.2022L34.9185 25.5631H31.2005L34.2507 11.2068H37.9688V11.2022Z" fill="url(#paint0_linear_16_799)"/>
</g>
<defs>
<linearGradient id="paint0_linear_16_799" x1="38.1936" y1="10.9785" x2="38.1936" y2="25.7811" gradientUnits="userSpaceOnUse">
<stop stop-color="white"/>
<stop offset="1" stop-color="white" stop-opacity="0.5"/>
</linearGradient>
<clipPath id="clip0_16_799">
<rect width="75" height="36" fill="white" transform="translate(0.75 0.379883)"/>
</clipPath>
</defs>
</svg>
