<svg width="128" height="28" viewBox="0 0 128 28" fill="none" xmlns="http://www.w3.org/2000/svg">
<path d="M113.133 14.0828C113.133 10.5503 110.46 7.6928 106.684 7.6928C102.983 7.6928 100.348 10.4405 100.348 14.216C100.348 18.0104 103.058 20.777 106.946 20.777C109.413 20.777 111.487 19.6736 112.777 17.4308L110.161 16.2158C109.544 17.3372 108.198 18.0662 106.946 18.0662C105.357 18.0662 103.526 16.8701 103.413 15.2069H113.039C113.1 14.8353 113.132 14.4594 113.133 14.0828ZM103.469 13.0028C103.694 11.3207 104.853 10.2182 106.703 10.2182C108.534 10.2182 109.656 11.2982 109.805 13.0028H103.469Z" fill="white"/>
<path d="M77.1028 7.6901C73.3084 7.6901 70.6174 10.4198 70.6174 14.27C70.6174 18.0824 73.3084 20.7743 77.1406 20.7743C80.9909 20.7743 83.6818 18.0824 83.6818 14.3258C83.6818 10.4567 80.9161 7.6901 77.1028 7.6901ZM77.1406 17.9141C75.2336 17.9141 74.0564 16.4939 74.0564 14.288C74.0564 12.0452 75.2524 10.5125 77.1406 10.5125C79.0469 10.5125 80.2429 12.0263 80.2429 14.288C80.2429 16.5128 79.0658 17.9141 77.1406 17.9141Z" fill="white"/>
<path d="M63.592 7.6937C62.0377 7.6937 60.8668 8.2247 59.6959 9.5414H59.3116C58.525 8.3525 57.2416 7.6937 55.8016 7.6937C55.0827 7.68667 54.3723 7.85052 53.7291 8.17175C53.0858 8.49299 52.5281 8.96242 52.1017 9.5414H51.7174L51.6986 9.5234V7.9502H48.482V20.4998H51.9578V14.0414C51.9578 11.9561 52.8362 10.7303 54.3545 10.7303C55.763 10.7303 56.6773 11.7734 56.6773 13.3646V20.4998H60.1711V14.0414C60.1711 11.9714 61.0495 10.7303 62.5867 10.7303C63.9763 10.7303 64.8727 11.7734 64.8727 13.3835V20.4998H68.3674V12.9623C68.3674 9.6881 66.6106 7.6937 63.592 7.6937Z" fill="white"/>
<path d="M120.862 16.1474H120.613C120.613 15.9242 119.098 11.9498 118.104 9.4874L117.483 7.9475H113.981L118.949 20.5412L116.992 25.34H120.469L127.623 7.952H124.12L123.548 9.2687L121.611 14.063C121.064 15.4022 120.84 16.0232 120.862 16.1474Z" fill="white"/>
<path d="M93.3217 7.6937C91.7665 7.6937 90.4309 8.3705 89.5345 9.5783H89.1682L89.1322 9.5603V7.9502H85.9138V20.4998H89.3896V14.0783C89.3896 12.0299 90.3796 10.7483 92.0059 10.7483C93.5242 10.7483 94.6403 11.8823 94.6403 13.6751V20.4989H98.1161V12.9263C98.1161 9.8528 96.1036 7.6937 93.3217 7.6937Z" fill="white"/>
<path d="M24.8759 0.5C17.3663 0.5 11.3318 6.575 11.3318 14C11.3318 21.4862 17.4257 27.5 24.8741 27.5C32.3225 27.5 38.4218 21.425 38.4218 14C38.4218 6.575 32.3243 0.5 24.8759 0.5ZM24.8759 19.0319C22.1057 19.0319 19.8287 16.7612 19.8287 14C19.8287 11.2388 22.1057 8.9681 24.8759 8.9681C27.6461 8.9681 29.924 11.2388 29.924 14C29.8619 16.7612 27.6461 19.0319 24.8759 19.0319Z" fill="white"/>
<path d="M11.3318 4.4222V24.0584H6.53295L0.376953 4.4222H11.3318Z" fill="white"/>
</svg>
